<mxfile host="app.diagrams.net" modified="2021-04-01T03:10:33.453Z" agent="5.0 (Windows NT 10.0; Win64; x64) AppleWebKit/537.36 (KHTML, like Gecko) Chrome/89.0.4389.90 Safari/537.36 Edg/89.0.774.63" etag="aTVvtnN45hNHfCdbd5OF" version="14.2.9" type="github">
  <diagram id="h4gHyp289pLxnWVvlPYA" name="第 1 页">
    <mxGraphModel dx="1695" dy="526" grid="1" gridSize="10" guides="1" tooltips="1" connect="1" arrows="1" fold="1" page="1" pageScale="1" pageWidth="827" pageHeight="1169" math="0" shadow="0">
      <root>
        <mxCell id="0" />
        <mxCell id="1" parent="0" />
        <mxCell id="AUk9rHBCdp10U5CmNInO-1" value="发送短信验证码" style="swimlane;html=1;childLayout=stackLayout;resizeParent=1;resizeParentMax=0;startSize=20;" vertex="1" parent="1">
          <mxGeometry x="-10" y="70" width="390" height="480" as="geometry" />
        </mxCell>
        <mxCell id="AUk9rHBCdp10U5CmNInO-2" value="用户" style="swimlane;html=1;startSize=20;" vertex="1" parent="AUk9rHBCdp10U5CmNInO-1">
          <mxGeometry y="20" width="146.25" height="460" as="geometry">
            <mxRectangle y="20" width="30" height="460" as="alternateBounds" />
          </mxGeometry>
        </mxCell>
        <mxCell id="AUk9rHBCdp10U5CmNInO-18" value="发送验证码" style="rounded=1;whiteSpace=wrap;html=1;absoluteArcSize=1;arcSize=14;strokeWidth=2;" vertex="1" parent="AUk9rHBCdp10U5CmNInO-2">
          <mxGeometry x="28.75" y="40" width="75" height="30" as="geometry" />
        </mxCell>
        <mxCell id="AUk9rHBCdp10U5CmNInO-29" value="发送成功" style="rounded=1;whiteSpace=wrap;html=1;absoluteArcSize=1;arcSize=14;strokeWidth=2;" vertex="1" parent="AUk9rHBCdp10U5CmNInO-2">
          <mxGeometry x="35" y="410" width="62.5" height="30" as="geometry" />
        </mxCell>
        <mxCell id="AUk9rHBCdp10U5CmNInO-31" value="发送频率太高" style="rounded=1;whiteSpace=wrap;html=1;absoluteArcSize=1;arcSize=14;strokeWidth=2;" vertex="1" parent="AUk9rHBCdp10U5CmNInO-2">
          <mxGeometry x="23.119999999999997" y="115" width="86.25" height="30" as="geometry" />
        </mxCell>
        <mxCell id="AUk9rHBCdp10U5CmNInO-21" value="" style="edgeStyle=orthogonalEdgeStyle;rounded=0;orthogonalLoop=1;jettySize=auto;html=1;" edge="1" parent="AUk9rHBCdp10U5CmNInO-1" source="AUk9rHBCdp10U5CmNInO-18" target="AUk9rHBCdp10U5CmNInO-20">
          <mxGeometry relative="1" as="geometry" />
        </mxCell>
        <mxCell id="AUk9rHBCdp10U5CmNInO-22" value="mobile&lt;br&gt;request" style="edgeLabel;html=1;align=center;verticalAlign=middle;resizable=0;points=[];" vertex="1" connectable="0" parent="AUk9rHBCdp10U5CmNInO-21">
          <mxGeometry x="0.195" y="-1" relative="1" as="geometry">
            <mxPoint x="-13" y="-1" as="offset" />
          </mxGeometry>
        </mxCell>
        <mxCell id="AUk9rHBCdp10U5CmNInO-30" value="" style="edgeStyle=orthogonalEdgeStyle;rounded=0;orthogonalLoop=1;jettySize=auto;html=1;" edge="1" parent="AUk9rHBCdp10U5CmNInO-1" source="AUk9rHBCdp10U5CmNInO-27" target="AUk9rHBCdp10U5CmNInO-29">
          <mxGeometry relative="1" as="geometry" />
        </mxCell>
        <mxCell id="AUk9rHBCdp10U5CmNInO-7" value="smscontroller" style="swimlane;html=1;startSize=20;" vertex="1" parent="AUk9rHBCdp10U5CmNInO-1">
          <mxGeometry x="146.25" y="20" width="243.75" height="460" as="geometry">
            <mxRectangle x="540" y="60" width="70" height="20" as="alternateBounds" />
          </mxGeometry>
        </mxCell>
        <mxCell id="AUk9rHBCdp10U5CmNInO-35" style="edgeStyle=orthogonalEdgeStyle;rounded=0;orthogonalLoop=1;jettySize=auto;html=1;" edge="1" parent="AUk9rHBCdp10U5CmNInO-7" source="AUk9rHBCdp10U5CmNInO-20" target="AUk9rHBCdp10U5CmNInO-33">
          <mxGeometry relative="1" as="geometry" />
        </mxCell>
        <mxCell id="AUk9rHBCdp10U5CmNInO-20" value="取得IP" style="rounded=1;whiteSpace=wrap;html=1;absoluteArcSize=1;arcSize=14;strokeWidth=2;" vertex="1" parent="AUk9rHBCdp10U5CmNInO-7">
          <mxGeometry x="81.88" y="40" width="80" height="30" as="geometry" />
        </mxCell>
        <mxCell id="AUk9rHBCdp10U5CmNInO-23" value="根据用户IP进行限制&lt;br&gt;存入reids，60s&lt;br&gt;【mobile:smscode:$ip】=$ip" style="rounded=1;whiteSpace=wrap;html=1;absoluteArcSize=1;arcSize=14;strokeWidth=2;" vertex="1" parent="AUk9rHBCdp10U5CmNInO-7">
          <mxGeometry x="41.879999999999995" y="210" width="160" height="60" as="geometry" />
        </mxCell>
        <mxCell id="AUk9rHBCdp10U5CmNInO-25" value="生成验证码，并发送短信" style="rounded=1;whiteSpace=wrap;html=1;absoluteArcSize=1;arcSize=14;strokeWidth=2;" vertex="1" parent="AUk9rHBCdp10U5CmNInO-7">
          <mxGeometry x="41.88" y="310" width="160" height="50" as="geometry" />
        </mxCell>
        <mxCell id="AUk9rHBCdp10U5CmNInO-26" value="" style="edgeStyle=orthogonalEdgeStyle;rounded=0;orthogonalLoop=1;jettySize=auto;html=1;" edge="1" parent="AUk9rHBCdp10U5CmNInO-7" source="AUk9rHBCdp10U5CmNInO-23" target="AUk9rHBCdp10U5CmNInO-25">
          <mxGeometry relative="1" as="geometry" />
        </mxCell>
        <mxCell id="AUk9rHBCdp10U5CmNInO-27" value="生成验证码存入redis，30m&lt;br&gt;【mobile:smscode:$mobile】=$code" style="rounded=1;whiteSpace=wrap;html=1;absoluteArcSize=1;arcSize=14;strokeWidth=2;" vertex="1" parent="AUk9rHBCdp10U5CmNInO-7">
          <mxGeometry x="41.879999999999995" y="400" width="160" height="50" as="geometry" />
        </mxCell>
        <mxCell id="AUk9rHBCdp10U5CmNInO-28" value="" style="edgeStyle=orthogonalEdgeStyle;rounded=0;orthogonalLoop=1;jettySize=auto;html=1;" edge="1" parent="AUk9rHBCdp10U5CmNInO-7" source="AUk9rHBCdp10U5CmNInO-25" target="AUk9rHBCdp10U5CmNInO-27">
          <mxGeometry relative="1" as="geometry" />
        </mxCell>
        <mxCell id="AUk9rHBCdp10U5CmNInO-37" style="edgeStyle=orthogonalEdgeStyle;rounded=0;orthogonalLoop=1;jettySize=auto;html=1;exitX=0.5;exitY=1;exitDx=0;exitDy=0;exitPerimeter=0;entryX=0.5;entryY=0;entryDx=0;entryDy=0;" edge="1" parent="AUk9rHBCdp10U5CmNInO-7" source="AUk9rHBCdp10U5CmNInO-33" target="AUk9rHBCdp10U5CmNInO-23">
          <mxGeometry relative="1" as="geometry" />
        </mxCell>
        <mxCell id="AUk9rHBCdp10U5CmNInO-33" value="&lt;span&gt;判断redis中是否存在key：&lt;/span&gt;&lt;br&gt;&lt;span&gt;【mobile:smscode:$ip】&lt;/span&gt;" style="strokeWidth=2;html=1;shape=mxgraph.flowchart.decision;whiteSpace=wrap;" vertex="1" parent="AUk9rHBCdp10U5CmNInO-7">
          <mxGeometry x="17.63" y="90" width="208.5" height="80" as="geometry" />
        </mxCell>
        <mxCell id="AUk9rHBCdp10U5CmNInO-36" style="edgeStyle=orthogonalEdgeStyle;rounded=0;orthogonalLoop=1;jettySize=auto;html=1;" edge="1" parent="AUk9rHBCdp10U5CmNInO-1" source="AUk9rHBCdp10U5CmNInO-33" target="AUk9rHBCdp10U5CmNInO-31">
          <mxGeometry relative="1" as="geometry" />
        </mxCell>
      </root>
    </mxGraphModel>
  </diagram>
</mxfile>
